HIERARCHY
ROOT Hips
{
	OFFSET 53.152500 -6.664224 84.279198
	CHANNELS 6 Xposition Yposition Zposition Xrotation Yrotation Zrotation
	JOINT spine
	{
		OFFSET 0.000000 -0.342408 5.954384
		CHANNELS 3 Xrotation Yrotation Zrotation
		JOINT spine1
		{
			OFFSET 0.000000 -0.000001 8.856018
			CHANNELS 3 Xrotation Yrotation Zrotation
			JOINT spine2
			{
				OFFSET 0.000000 -0.000001 8.485672
				CHANNELS 3 Xrotation Yrotation Zrotation
				JOINT Neck
				{
					OFFSET 0.000000 -1.038703 21.786301
					CHANNELS 3 Xrotation Yrotation Zrotation
					JOINT Head
					{
						OFFSET 0.000000 -0.000001 6.582199
						CHANNELS 3 Xrotation Yrotation Zrotation
						End Site
						{
							OFFSET 0.000000 5.254357 15.932602
						}
					}
				}
				JOINT RightShoulder
				{
					OFFSET -3.573071 0.497524 9.163864
					CHANNELS 3 Xrotation Yrotation Zrotation
					JOINT RightArm
					{
						OFFSET 0.000000 -0.000002 12.019196
						CHANNELS 3 Xrotation Yrotation Zrotation
						JOINT RightArmRoll
						{
							OFFSET 0.000000 -0.000001 6.067551
							CHANNELS 3 Xrotation Yrotation Zrotation
							JOINT RightForeArm
							{
								OFFSET 0.000000 -0.000003 17.672592
								CHANNELS 3 Xrotation Yrotation Zrotation
								JOINT RightForeArmRoll
								{
									OFFSET 0.000000 -0.000001 6.808716
									CHANNELS 3 Xrotation Yrotation Zrotation
									JOINT RightHand
									{
										OFFSET 0.000000 -0.000002 13.663605
										CHANNELS 3 Xrotation Yrotation Zrotation
										End Site
										{
											OFFSET 0.000000 0.000000 0.100006
										}
									}
								}
							}
						}
					}
				}
				JOINT LeftShoulder
				{
					OFFSET 3.573071 0.497524 9.163864
					CHANNELS 3 Xrotation Yrotation Zrotation
					JOINT LeftArm
					{
						OFFSET 0.000000 -0.000002 12.019196
						CHANNELS 3 Xrotation Yrotation Zrotation
						JOINT LeftArmRoll
						{
							OFFSET 0.000000 -0.000001 6.067551
							CHANNELS 3 Xrotation Yrotation Zrotation
							JOINT LeftForeArm
							{
								OFFSET 0.000000 -0.000003 17.672592
								CHANNELS 3 Xrotation Yrotation Zrotation
								JOINT LeftForeArmRoll
								{
									OFFSET 0.000000 -0.000001 6.808716
									CHANNELS 3 Xrotation Yrotation Zrotation
									JOINT LeftHand
									{
										OFFSET 0.000000 -0.000002 13.663605
										CHANNELS 3 Xrotation Yrotation Zrotation
										End Site
										{
											OFFSET 0.000000 0.000000 0.100006
										}
									}
								}
							}
						}
					}
				}
			}
		}
	}
	JOINT RightUpLeg
	{
		OFFSET -5.277740 0.811859 -0.967796
		CHANNELS 3 Xrotation Yrotation Zrotation
		JOINT RightUpLegRoll
		{
			OFFSET 0.000000 -0.000003 16.021400
			CHANNELS 3 Xrotation Yrotation Zrotation
			JOINT RightLeg
			{
				OFFSET 0.000000 0.000003 -19.840096
				CHANNELS 3 Xrotation Yrotation Zrotation
				JOINT RightLegRoll
				{
					OFFSET 0.000000 -0.000003 19.904999
					CHANNELS 3 Xrotation Yrotation Zrotation
					JOINT RightFoot
					{
						OFFSET 0.000000 -0.000003 16.567497
						CHANNELS 3 Xrotation Yrotation Zrotation
						JOINT RightToeBase
						{
							OFFSET 0.000000 -0.000002 13.849602
							CHANNELS 3 Xrotation Yrotation Zrotation
							End Site
							{
								OFFSET 0.005871 0.773115 6.707275
							}
						}
					}
				}
			}
		}
	}
	JOINT LeftUpLeg
	{
		OFFSET 5.277740 0.811859 -0.967796
		CHANNELS 3 Xrotation Yrotation Zrotation
		JOINT LeftUpLegRoll
		{
			OFFSET 0.000000 -0.000003 16.021500
			CHANNELS 3 Xrotation Yrotation Zrotation
			JOINT LeftLeg
			{
				OFFSET 0.000000 -0.000003 19.839996
				CHANNELS 3 Xrotation Yrotation Zrotation
				JOINT LeftLegRoll
				{
					OFFSET 0.000000 -0.000003 20.089005
					CHANNELS 3 Xrotation Yrotation Zrotation
					JOINT LeftFoot
					{
						OFFSET 0.000000 -0.000002 16.383499
						CHANNELS 3 Xrotation Yrotation Zrotation
						JOINT LeftToeBase
						{
							OFFSET 0.000000 -0.000002 13.849594
							CHANNELS 3 Xrotation Yrotation Zrotation
							End Site
							{
								OFFSET -0.026310 0.773116 6.707275
							}
						}
					}
				}
			}
		}
	}
}
MOTION
Frames: 13
Frame Time: 0.041667
53.460606 -5.634504 84.370590 -3.723179 2.021787 -0.632878 -2.052767 -0.556529 0.113636 -0.102332 -1.107838 0.214886 1.542867 -1.105139 0.228288 16.277128 7.800106 0.411116 -9.061177 -16.142722 -0.205794 -10.320189 -11.511181 -8.218900 -136.230828 -133.258439 -108.114265 0.000003 0.000000 0.000000 51.360755 3.129323 -3.914320 -0.000002 0.000001 -2.999999 -5.000170 -7.999911 -0.000002 -26.504520 67.820165 30.887932 -42.045600 115.472162 48.048660 0.000005 0.000003 0.000000 -0.025856 -3.640799 1.990837 -0.000003 0.000002 3.011601 -5.000173 7.999900 -0.000010 -0.254287 -180.829012 2.330259 -179.999991 0.000005 -1.059999 173.368998 -2.985930 -0.384959 0.000003 0.000005 0.081645 69.289701 6.871291 2.159716 25.456952 -7.355623 0.000004 -1.673609 176.996265 -1.482826 -0.000004 -0.000004 -1.059230 -10.995503 2.954980 0.556254 0.000005 0.000000 -0.179555 71.089101 -6.824894 -2.154351 25.456955 7.355613 -0.000001 
53.465202 -5.642322 84.369507 -3.718761 2.035189 -0.656342 -2.053680 -0.558361 0.113464 -0.104098 -1.112528 0.214947 1.541099 -1.109829 0.228407 16.293070 7.817177 0.409686 -9.055264 -16.171865 -0.206723 -10.339833 -11.629774 -8.267222 -136.254966 -132.775613 -108.280000 0.000003 -0.000000 -0.000003 51.206816 3.133010 -3.909257 -0.000002 0.000002 -3.000001 -5.000175 -7.999910 -0.000002 -26.486483 67.818533 30.867691 -42.070130 115.488172 48.080963 0.000004 0.000004 0.000001 -0.025856 -3.640801 1.990837 -0.000001 0.000003 3.011600 -5.000171 7.999899 -0.000010 -0.188676 -180.840023 2.332336 -179.999991 0.000005 -1.059999 173.530395 -3.006766 -0.377803 0.000003 0.000005 0.078615 69.215190 6.872138 2.161395 25.456959 -7.355624 0.000004 -1.678162 176.987291 -1.487454 -0.000005 -0.000004 -1.059280 -11.006820 2.955102 0.557035 0.000005 0.000000 -0.179808 71.095466 -6.824807 -2.154346 25.456953 7.355613 -0.000001 
53.475002 -5.644679 84.368698 -3.714439 2.049011 -0.679515 -2.054550 -0.560234 0.113294 -0.105748 -1.117358 0.215005 1.539452 -1.114658 0.228521 16.307657 7.835867 0.407897 -9.049021 -16.202512 -0.208151 -10.360530 -11.750189 -8.317337 -136.275579 -132.294166 -108.445325 0.000002 0.000000 -0.000002 51.048281 3.136794 -3.904029 -0.000002 -0.000000 -3.000000 -5.000174 -7.999915 0.000000 -26.469006 67.816689 30.848085 -42.094657 115.504195 48.113649 0.000001 0.000004 0.000001 -0.025857 -3.640800 1.990837 -0.000000 0.000002 3.011600 -5.000173 7.999900 -0.000010 -0.122599 -180.852030 2.333873 -179.999991 0.000005 -1.059999 173.692394 -3.026604 -0.369394 0.000003 0.000006 0.075582 69.140393 6.873040 2.163004 25.456955 -7.355622 0.000005 -1.682841 176.978316 -1.492625 -0.000004 -0.000005 -1.059340 -11.018538 2.955358 0.557849 0.000005 0.000000 -0.180067 71.102139 -6.824683 -2.154417 25.456953 7.355614 -0.000001 
53.482109 -5.645762 84.367401 -3.710349 2.063141 -0.702272 -2.055329 -0.562130 0.113128 -0.107222 -1.122248 0.215046 1.537984 -1.119547 0.228613 16.321094 7.855839 0.405818 -9.042891 -16.234333 -0.210085 -10.382212 -11.873310 -8.369244 -136.292860 -131.814701 -108.610280 0.000003 0.000001 -0.000002 50.884418 3.140695 -3.898610 0.000000 -0.000002 -3.000002 -5.000172 -7.999911 0.000001 -26.451960 67.814769 30.828988 -42.119683 115.520396 48.146977 0.000002 0.000004 0.000001 -0.025858 -3.640801 1.990837 -0.000002 0.000002 3.011600 -5.000172 7.999899 -0.000010 -0.057251 -180.864024 2.334864 -179.999991 0.000005 -1.059999 173.851838 -3.046414 -0.361997 0.000003 0.000005 0.072603 69.066887 6.873902 2.164627 25.456957 -7.355624 0.000005 -1.687494 176.967305 -1.498155 -0.000004 -0.000004 -1.059390 -11.030760 2.955716 0.558695 0.000005 0.000000 -0.180334 71.108942 -6.824624 -2.154390 25.456953 7.355613 0.000000 
53.462204 -5.665681 84.360703 -3.706621 2.077449 -0.724488 -2.056003 -0.564031 0.112961 -0.108469 -1.127138 0.215054 1.536736 -1.124436 0.228666 16.333762 7.876784 0.403451 -9.037286 -16.266635 -0.212484 -10.404806 -11.999638 -8.422873 -136.306820 -131.337776 -108.774355 0.000004 0.000001 -0.000001 50.714455 3.144735 -3.892984 -0.000001 0.000002 -3.000000 -5.000174 -7.999911 -0.000000 -26.435339 67.813000 30.810334 -42.143459 115.537417 48.178853 0.000005 0.000004 0.000000 -0.025856 -3.640801 1.990837 -0.000003 0.000002 3.011600 -5.000175 7.999900 -0.000010 0.006171 -180.877015 2.335256 -179.999991 0.000005 -1.060000 174.005640 -3.064184 -0.354597 0.000003 0.000005 0.069736 68.995921 6.874738 2.166189 25.456953 -7.355623 0.000004 -1.691918 176.957320 -1.504027 -0.000005 -0.000004 -1.059450 -11.043379 2.956119 0.559560 0.000005 0.000000 -0.180610 71.116059 -6.824528 -2.154438 25.456952 7.355613 -0.000001 
53.473003 -5.669872 84.362198 -3.703381 2.091817 -0.746038 -2.056530 -0.565918 0.112795 -0.109434 -1.131938 0.215013 1.535779 -1.129234 0.228661 16.345650 7.898375 0.400881 -9.032602 -16.299097 -0.215344 -10.428145 -12.130057 -8.478191 -136.317448 -130.863897 -108.937221 0.000001 -0.000001 -0.000003 50.537966 3.148922 -3.887139 0.000000 0.000001 -3.000000 -5.000174 -7.999911 0.000000 -26.418770 67.811313 30.791750 -42.169168 115.553878 48.212543 0.000004 0.000004 0.000001 -0.025856 -3.640801 1.990837 -0.000003 0.000002 3.011601 -5.000174 7.999900 -0.000010 0.066488 -180.890020 2.335038 -179.999991 0.000005 -1.059999 174.150672 -3.080900 -0.347473 0.000003 0.000006 0.067037 68.928958 6.875503 2.167693 25.456955 -7.355624 0.000004 -1.695958 176.946323 -1.510078 -0.000004 -0.000004 -1.059510 -11.056103 2.956551 0.560424 0.000005 0.000000 -0.180897 71.123381 -6.824433 -2.154472 25.456948 7.355614 -0.000001 
53.464802 -5.684544 84.367111 -3.700775 2.106103 -0.766798 -2.056889 -0.567774 0.112630 -0.110060 -1.136578 0.214909 1.535151 -1.133883 0.228582 16.357154 7.920310 0.398121 -9.029261 -16.330905 -0.218605 -10.452365 -12.265155 -8.535188 -136.325057 -130.393584 -109.098837 0.000002 0.000001 -0.000004 50.353982 3.153304 -3.881056 -0.000002 -0.000002 -3.000000 -5.000174 -7.999912 -0.000000 -26.402250 67.809954 30.773202 -42.197144 115.569929 48.248159 0.000004 0.000004 0.000001 -0.025858 -3.640800 1.990837 -0.000001 0.000002 3.011600 -5.000170 7.999899 -0.000010 0.122498 -180.903024 2.334180 -179.999991 0.000005 -1.060996 174.283806 -3.096563 -0.340813 0.000003 0.000006 0.064563 68.867404 6.876268 2.168961 25.456955 -7.355623 0.000005 -1.699428 176.935340 -1.516227 -0.000004 -0.000004 -1.059560 -11.069125 2.956960 0.561292 0.000006 0.000000 -0.181198 71.130908 -6.824336 -2.154495 25.456957 7.355613 -0.000001 
53.466805 -5.687973 84.366310 -3.698936 2.120188 -0.786642 -2.057042 -0.569578 0.112466 -0.110292 -1.140998 0.214725 1.534923 -1.138302 0.228412 16.368361 7.942253 0.395243 -9.027683 -16.361850 -0.222291 -10.477410 -12.405815 -8.593876 -136.329456 -129.927342 -109.258780 0.000003 0.000000 -0.000002 50.162077 3.157896 -3.874737 -0.000001 -0.000002 -3.000003 -5.000171 -7.999907 0.000000 -26.385629 67.809032 30.754511 -42.227197 115.585488 48.285312 0.000000 0.000004 0.000001 -0.025857 -3.640801 1.990838 -0.000000 0.000002 3.011601 -5.000174 7.999901 -0.000010 0.173007 -180.916029 2.332664 -179.999991 0.000005 -1.060997 174.401927 -3.109130 -0.334589 0.000003 0.000005 0.062373 68.812564 6.876930 2.170295 25.456957 -7.355625 0.000005 -1.702171 176.924357 -1.522354 -0.000004 -0.000004 -1.059620 -11.082246 2.957308 0.562146 0.000005 0.000000 -0.181513 71.138558 -6.824267 -2.154415 25.456952 7.355612 -0.000000 
53.471603 -5.696751 84.366608 -3.697995 2.133951 -0.805444 -2.056950 -0.571316 0.112300 -0.110077 -1.145118 0.214445 1.535135 -1.142420 0.228132 16.379658 7.963902 0.392239 -9.028276 -16.391216 -0.226358 -10.503207 -12.552638 -8.654201 -136.330726 -129.465607 -109.416632 0.000001 -0.000000 -0.000004 49.961355 3.162715 -3.868146 -0.000003 0.000001 -2.999999 -5.000172 -7.999912 -0.000001 -26.368826 67.808704 30.735588 -42.258305 115.601443 48.322601 0.000002 0.000003 0.000001 -0.025859 -3.640801 1.990838 -0.000004 0.000001 3.011601 -5.000175 7.999898 -0.000010 0.216831 -180.929006 2.330474 -179.999991 0.000005 -1.060996 174.501894 -3.119610 -0.330122 0.000003 0.000005 0.060522 68.766051 6.877510 2.171196 25.456957 -7.355623 0.000005 -1.703979 176.913347 -1.528360 -0.000004 -0.000004 -1.059670 -11.095466 2.957557 0.562981 0.000005 -0.000000 -0.181845 71.146426 -6.824195 -2.154420 25.456952 7.355613 -0.000001 
53.495609 -5.661673 84.362289 -3.698089 2.147264 -0.823078 -2.056607 -0.572967 0.112134 -0.109357 -1.148858 0.214054 1.535857 -1.146168 0.227727 16.391136 7.984925 0.389200 -9.031452 -16.418586 -0.230802 -10.529601 -12.706309 -8.716114 -136.328978 -129.008968 -109.572080 0.000004 0.000000 -0.000001 49.751310 3.167791 -3.861284 -0.000001 -0.000002 -3.000002 -5.000172 -7.999909 0.000001 -26.351456 67.808889 30.715986 -42.293242 115.616292 48.362920 0.000001 0.000004 0.000001 -0.025857 -3.640801 1.990837 -0.000001 0.000002 3.011601 -5.000173 7.999901 -0.000010 0.252766 -180.940017 2.327593 -179.999991 0.000005 -1.060997 174.580646 -3.126982 -0.325501 0.000003 0.000005 0.059069 68.729106 6.877970 2.172081 25.456953 -7.355624 0.000004 -1.704713 176.903375 -1.534164 -0.000005 -0.000004 -1.059730 -11.108687 2.957669 0.563786 0.000005 0.000000 -0.182196 71.154404 -6.824118 -2.154422 25.456955 7.355613 -0.000001 
53.517002 -5.663403 84.364006 -3.699401 2.159555 -0.839982 -2.055957 -0.574408 0.111967 -0.108081 -1.152018 0.213529 1.537129 -1.149336 0.227162 16.403360 8.006867 0.386192 -9.038005 -16.445813 -0.235731 -10.556570 -12.866140 -8.779538 -136.322680 -128.556960 -109.725063 0.000004 0.000000 -0.000001 49.531463 3.173127 -3.854142 -0.000002 0.000000 -3.000000 -5.000171 -7.999905 -0.000001 -26.336849 67.811088 30.699412 -42.334322 115.629652 48.407467 0.000002 0.000003 0.000001 -0.025858 -3.640800 1.990837 -0.000004 0.000002 3.011600 -5.000171 7.999899 -0.000010 0.281928 -180.951013 2.324501 -179.999991 0.000005 -1.060997 174.640233 -3.132267 -0.322715 0.000003 0.000005 0.057979 68.700659 6.878347 2.172623 25.456960 -7.355623 0.000005 -1.703697 176.894386 -1.539282 -0.000004 -0.000004 -1.059780 -11.121302 2.957541 0.564522 0.000005 0.000000 -0.182578 71.162471 -6.824010 -2.154508 25.456948 7.355613 -0.000000 
53.513508 -5.672402 84.361801 -3.701930 2.170536 -0.856619 -2.055005 -0.575569 0.111798 -0.106271 -1.154548 0.212868 1.538941 -1.151875 0.226434 16.416296 8.031249 0.383276 -9.048036 -16.474771 -0.241221 -10.584064 -13.030653 -8.844420 -136.310427 -128.108654 -109.875505 0.000001 -0.000000 -0.000004 49.302495 3.178700 -3.846757 -0.000001 -0.000001 -3.000001 -5.000171 -7.999911 -0.000001 -26.327342 67.815999 30.688477 -42.381542 115.641482 48.455630 0.000004 0.000003 0.000001 -0.025855 -3.640802 1.990837 -0.000004 0.000002 3.011601 -5.000173 7.999900 -0.000010 0.306498 -180.959005 2.321580 -179.999991 0.000005 -1.060996 174.685886 -3.134499 -0.320406 0.000003 0.000005 0.057161 68.678303 6.878639 2.173066 25.456957 -7.355624 0.000005 -1.700660 176.887365 -1.543498 -0.000004 -0.000005 -1.059840 -11.132915 2.957149 0.565174 0.000005 0.000000 -0.183000 71.170435 -6.823930 -2.154506 25.456953 7.355613 -0.000000 
53.520603 -5.671602 84.360809 -3.705484 2.180546 -0.872905 -2.053804 -0.576511 0.111629 -0.103987 -1.156558 0.212095 1.541222 -1.153903 0.225569 16.429632 8.057665 0.380355 -9.060928 -16.505284 -0.247301 -10.612189 -13.199552 -8.910824 -136.292641 -127.663885 -110.023631 0.000003 0.000000 -0.000001 49.064814 3.184504 -3.839124 -0.000002 0.000003 -2.999999 -5.000172 -7.999908 -0.000001 -26.321686 67.822932 30.681763 -42.434726 115.651768 48.507863 0.000004 0.000004 0.000001 -0.025858 -3.640801 1.990837 -0.000002 0.000003 3.011600 -5.000173 7.999901 -0.000010 0.326907 -180.967010 2.318673 -179.999991 0.000005 -1.060997 174.718998 -3.135659 -0.318687 0.000003 0.000005 0.056586 68.661412 6.878852 2.173358 25.456957 -7.355624 0.000005 -1.696001 176.882365 -1.547104 -0.000004 -0.000004 -1.059890 -11.143822 2.956568 0.565764 0.000005 0.000000 -0.183455 71.178426 -6.823883 -2.154511 25.456950 7.355614 -0.000001 
